<?xml version="1.0"?><svg xmlns="http://www.w3.org/2000/svg"  viewBox="0 0 50 50" width="150px" height="150px">    <path d="M 25 2.0019531 C 12.317 2.0019531 2 12.318953 2 25.001953 C 2 37.684953 12.317 48.001953 25 48.001953 C 37.683 48.001953 48 37.684953 48 25.001953 C 48 12.318953 37.683 2.0019531 25 2.0019531 z M 36.712891 10.001953 C 37.504891 10.705953 38.030047 12.002016 37.998047 13.541016 C 37.972047 14.853016 37.454203 16.036859 36.908203 17.005859 C 36.355203 17.987859 35.675672 18.876234 35.013672 19.740234 C 34.092672 20.942234 32.996766 22.377875 32.009766 23.671875 C 31.736766 24.030875 31.210453 24.844453 30.939453 24.939453 C 30.745453 25.007453 30.514688 24.938406 30.304688 24.941406 C 29.335687 24.952406 28.345922 25.096203 28.044922 25.783203 C 28.491922 26.291203 29.511188 26.119531 30.367188 26.144531 C 29.225188 27.941531 27.938828 29.721156 26.673828 31.535156 C 26.512828 31.766156 26.284328 32.2505 26.111328 32.3125 C 25.768328 32.4355 25.057859 32.255672 24.505859 32.263672 C 22.264859 32.294672 19.715562 32.551719 18.851562 34.011719 C 21.664562 34.241719 24.492438 34.455734 27.523438 34.427734 C 25.120438 35.847734 20.976672 35.323594 18.263672 34.933594 C 18.831672 36.486594 20.070313 37.243359 21.570312 37.693359 C 21.848312 37.776359 21.850969 37.901188 21.542969 37.867188 C 19.948969 37.694187 18.371656 37.312094 17.597656 36.246094 C 17.461656 36.060094 17.460969 35.779078 17.167969 35.705078 C 17.142969 36.589078 17.666484 37.290547 18.146484 37.810547 C 18.396484 38.081547 18.689953 38.309766 19.001953 38.509766 C 19.320953 38.714766 19.309469 38.827984 18.980469 38.708984 C 17.976469 38.343984 17.032297 37.908094 16.279297 37.246094 C 15.686297 38.286094 14.813641 39.127734 13.931641 39.927734 C 13.734641 40.106734 13.735297 39.930734 13.904297 39.677734 C 14.307297 39.071734 15.359563 37.982109 15.601562 37.037109 C 15.717562 36.582109 15.483969 35.779953 15.167969 35.751953 C 14.843969 35.722953 14.631047 36.170531 14.498047 36.394531 C 14.303047 36.722531 14.187969 36.986484 14.042969 37.271484 C 13.671969 36.436484 13.986828 35.420313 14.423828 34.945312 C 13.691828 34.122312 12.9785 33.276437 12.1875 32.523438 C 11.8665 32.217438 11.978188 31.994547 12.367188 32.185547 C 13.533188 32.758547 14.603781 33.48475 15.300781 34.46875 C 14.935781 33.13275 14.506484 31.7365 14.021484 30.5625 C 13.913484 30.3005 14.039984 30.240891 14.208984 30.462891 C 14.991984 31.488891 15.681484 32.625859 16.271484 33.880859 C 16.151484 32.065859 16.201937 30.336391 16.835938 29.275391 C 16.879938 29.201391 16.923641 28.997828 17.056641 29.048828 C 17.260641 29.704828 17.406203 30.285047 17.658203 30.998047 C 17.761203 31.287047 18.227125 32.662328 18.578125 32.611328 C 18.812125 32.577328 18.860719 31.972141 18.886719 31.494141 C 18.999719 29.489141 18.724563 27.18275 18.601562 25.34375 C 18.883563 25.02875 19.260781 24.630078 19.550781 24.330078 C 19.648781 24.229078 19.762047 24.052609 19.873047 24.099609 C 19.847047 24.555609 19.907109 25.034672 19.912109 25.513672 C 19.925109 26.746672 19.947672 28.106672 20.388672 28.888672 C 20.753672 28.570672 20.864375 28.001813 20.984375 27.507812 C 21.375375 25.903813 21.610469 24.086672 21.855469 22.388672 C 22.516469 21.754672 23.280828 21.016672 23.923828 20.388672 C 24.003828 20.310672 24.066687 20.158266 24.179688 20.197266 C 24.351688 21.019266 24.317984 22.084047 24.833984 22.498047 C 25.259984 22.027047 25.361656 21.342344 25.472656 20.652344 C 25.524656 20.330344 25.567188 19.942078 25.617188 19.580078 C 25.666187 19.221078 25.646719 18.753609 25.761719 18.474609 C 25.903719 18.129609 26.639906 17.632734 27.003906 17.302734 C 29.959906 14.616734 33.117891 11.852953 36.712891 10.001953 z M 33.583984 15.357422 C 29.296984 20.443422 25.054547 25.572781 21.310547 31.175781 C 23.481547 28.736781 25.809141 26.329172 27.869141 23.701172 C 29.938141 21.060172 31.711984 18.161422 33.583984 15.357422 z"/></svg>